# xmcd
#
# Track frame offsets: 
#        150
#        17102
#        27077
#        40090
#        52067
#        61335
#        74127
#        84470
#        96925
#        110750
#        121035
#        131942
#        144152
#        164045
#        178302
#        191672
#        205827
#        221222
#        235692
#        246687
#        265062
#        278957
#
# Disc length: 3924 seconds
#
# Revision: 0
# Processed by: cddbd v1.5.2PL0 Copyright (c) Steve Scherf et al.
# Submitted via: ExactAudioCopyFreeDBPlugin 1.0
#
DISCID=5c0f5216
DTITLE=Tony Pinelli - 60's and 70's οι μεγάλες επιτυχίες
DYEAR=1900
DGENRE=
TTITLE0=ΑΝΤΙΟ
TTITLE1=ΕΧΕ ΓΕΙΑ
TTITLE2=ΠΕΦΤΕΙ Η ΝΥΧΤΑ
TTITLE3=ΗΤΑΝΡ Τ΄ ΟΝΕΙΡΟ
TTITLE4=ΜΗΝ ΠΟΝΑΣ
TTITLE5=ΗΡΘΕ ΒΟΡΙΑΣ ΚΑΠΩΣ ΝΩΡΙΣ
TTITLE6=ΑΠΟ ΣΤΙΓΜΗ ΣΕ ΣΤΙΓΜΗ
TTITLE7=ΤΑ ΔΑΚΡΥΣΜΕΝΑ ΜΑΤΙΑ ΣΟΥ
TTITLE8=ΣΕ ΖΗΤΩ
TTITLE9=ΝΑ Μ΄ ΑΓΑΠΗΣΕΙΣ
TTITLE10=ΠΡΙΝ ΑΠΟ ΣΕΝΑ
TTITLE11=ΜΙΑ ΝΥΧΤΑ ΠΑΓΩΜΕΝΗ
TTITLE12=ΜΕΣΑ ΣΤΗ ΝΥΧΤΙΑ
TTITLE13=ΗΛΙΟΣ
TTITLE14=ΣΤΟΝ ΚΗΠΟ ΤΗΣ ΑΓΑΠΗΣ (A flower in my garden)
TTITLE15=Η ΑΓΑΠΗ ΓΙΑΤΙ ΔΕΝ ΓΥΡΝΑ
TTITLE16=Τ΄ΟΝΕΙΡΟ
TTITLE17=ΟΙ 7 ΗΜΕΡΕΣ ΤΗΣ ΔΗΜΙΟΥΡΓΙΑΣ (Lay down)
TTITLE18=ΣΤΗΝ ΚΑΡΔΙΑ ΣΟΥ ΖΗΤΩ ΝΑ ΜΠΩ
TTITLE19=ΟΛΟΙ ΣΑΝ ΤΡΕΛΟΙ ΧΕΙΡΟΚΡΟΤΟΥΣΑΝ
TTITLE20=ΔΩΔΕΚΑ ΜΗΝΕΣ
TTITLE21=ΕΧΟΥΜΕ ΑΝΑΓΚΗ ΑΠ' ΑΓΑΠΗ
EXTD=
EXTT0=
EXTT1=
EXTT2=
EXTT3=
EXTT4=
EXTT5=
EXTT6=
EXTT7=
EXTT8=
EXTT9=
EXTT10=
EXTT11=
EXTT12=
EXTT13=
EXTT14=
EXTT15=
EXTT16=
EXTT17=
EXTT18=
EXTT19=
EXTT20=
EXTT21=
PLAYORDER=
